<?xml version="1.0" encoding="utf-8"?>
<!-- Generator: Adobe Illustrator 22.1.0, SVG Export Plug-In . SVG Version: 6.00 Build 0)  -->
<svg version="1.1" id="Livello_1" xmlns="http://www.w3.org/2000/svg" xmlns:xlink="http://www.w3.org/1999/xlink" x="0px" y="0px"
	 viewBox="0 0 125 30" style="enable-background:new 0 0 125 30;" xml:space="preserve">
<style type="text/css">
	.st0{fill:#FFFFFF;}
	.st1{fill:url(#SVGID_1_);}
	.st2{fill:url(#SVGID_2_);}
	.st3{fill:url(#SVGID_3_);}
	.st4{fill:url(#SVGID_4_);}
	.st5{fill:url(#SVGID_5_);}
	.st6{fill:url(#SVGID_6_);}
</style>
<title>LOGO WESTUDENTS</title>
<g id="OMBRE">
	<path class="st0" d="M37.1,14.5c-1-0.3-2,0.2-2.4,1.2c0,0.1-0.1,0.2-0.2,0.5c-0.3,0.6-0.6,1.2-1,1.7c-0.4,0.5-0.9,1-1.4,1.3
		c-0.5,0.3-1.1,0.5-1.7,0.5c-0.5,0-1-0.2-1.3-0.6c-0.4-0.6-0.7-1.3-0.6-2.1v-0.2c0.7-0.1,1.3-0.2,2-0.4c0.9-0.3,1.8-0.7,2.7-1.2
		c0.6-0.4,1.1-0.8,1.5-1.4c0.2-0.2,0.4-0.4,0.5-0.7l0,0c0,0,0-0.1,0-0.1c1.2-2,0.5-4.6-1.5-5.7c-0.6-0.4-1.4-0.6-2.1-0.6
		c-0.9,0-1.8,0.3-2.5,0.8l-0.3,0.2c-0.9,0.7-1.7,1.6-2.2,2.6c-0.5,0.8-0.8,1.6-1.1,2.4c-0.2-0.1-0.5-0.2-0.6-0.2l0,0
		c0.1-0.8,0.2-1.5,0.2-2.3c0-0.5-0.1-1-0.1-1.5l0,0c-0.2-1.2-1.3-2.1-2.5-2.1c-0.6,0-1.2,0.2-1.7,0.7c-0.5,0.4-0.8,1-0.9,1.7
		c-0.3,1.6,0.1,3.3,1.1,4.6c-0.4,1.8-1.2,3.5-2.3,4.9c-0.5,0.8-1.6,1-2.4,0.5c-0.1-0.1-0.2-0.2-0.3-0.3c0.6-1.1,1.1-2.3,1.6-3.5
		c0.3-1,0.5-2.1,0.5-3.2c0-0.7-0.2-1.5-0.7-2.1c-0.5-0.8-1.4-1.2-2.4-1.1c-0.8,0-1.5,0.3-2.1,0.8c-0.5,0.5-0.9,1-1.1,1.7
		c-0.2,0.6-0.4,1.3-0.5,1.9C11,13.9,11,14.5,11,15.1c0,0.5,0.1,1.1,0.1,1.6c0.1,0.5,0.2,1,0.4,1.5c-0.2,0.3-0.4,0.5-0.7,0.7
		c-0.4,0.3-1,0.5-1.5,0.5c-1.1-0.3-1.7-1.9-1.3-5.2c0.1-0.7,0.2-1.4,0.3-2.1s0.2-1,0.3-1.6L9,9.1C9.2,8,8.5,6.9,7.5,6.7
		C6.4,6.5,5.4,7.2,5.1,8.3c0,0-0.2,0.8-0.4,1.5s-0.2,1-0.3,1.8s-0.2,1.6-0.3,2.4c-0.1,0.8-0.1,1.6-0.1,2.5c0,0.7,0.1,1.4,0.2,2.1
		c0.1,0.8,0.4,1.6,0.7,2.3c0.4,0.7,0.9,1.4,1.5,1.8c0.8,0.5,1.7,0.8,2.7,0.7h0.2c0.9,0,1.8-0.3,2.6-0.8l0.4-0.3
		c0.3-0.2,0.6-0.4,0.9-0.6c0.4,0.4,0.8,0.7,1.3,1c0.8,0.5,1.7,0.7,2.7,0.6c1.4,0,2.7-0.7,3.6-1.7c0.9-1,1.7-2.2,2.2-3.5
		c0.3-0.6,0.5-1.3,0.8-1.9c0.3,0.1,0.5,0.2,0.8,0.2v0.6c0,0.7,0.1,1.5,0.3,2.2c0.2,0.7,0.5,1.5,1,2.1c0.5,0.6,1.1,1.1,1.8,1.5
		c0.7,0.4,1.6,0.5,2.4,0.5h0.3c1.2,0,2.4-0.4,3.4-1c0.9-0.6,1.7-1.3,2.4-2.1c0.6-0.8,1.1-1.6,1.5-2.5c0.4-0.7,0.3-0.6,0.4-0.8
		C38.7,15.9,38.2,14.9,37.1,14.5C37.2,14.5,37.2,14.5,37.1,14.5z M29.4,12.7c0.2-0.4,0.5-0.9,0.8-1.2c0.3-0.4,0.6-0.7,1-1l0,0
		c0.2-0.1,0.5-0.1,0.7,0c0,0,0.1,0.1,0.1,0.1l0,0l0,0l0,0c0,0.2,0,0.4-0.1,0.5l0,0l0,0c-0.3,0.3-0.6,0.6-1,0.8
		c-0.5,0.3-1,0.5-1.5,0.6l0,0L29.4,12.7z"/>
	<path class="st0" d="M48.1,16L48.1,16c-0.4-0.2-0.8-0.3-1.3-0.4l-0.4-0.1c-0.3-0.1-0.6-0.1-0.8-0.2c-0.2,0-0.3-0.1-0.4-0.2
		c-0.1-0.1-0.2-0.3-0.2-0.4c0-0.5,0.4-0.7,1.3-0.7c0.8,0,1.5,0.1,2.3,0.2h0.1V13l-0.5-0.1c-0.7-0.1-1.3-0.2-2-0.2
		c-1.7,0-2.6,0.7-2.6,2.2c0,0.4,0.1,0.7,0.3,1c0.2,0.3,0.4,0.5,0.7,0.6c0.4,0.1,0.8,0.3,1.2,0.3l0.3,0c0.3,0,0.5,0.1,0.8,0.2
		c0.2,0,0.3,0.1,0.4,0.2c0.3,0.3,0.2,0.8-0.1,1.1c0,0,0,0,0,0c-0.3,0.2-0.7,0.2-1,0.2c-0.8,0-1.5-0.1-2.3-0.2h-0.1l-0.1,1.2l0.5,0.1
		c0.7,0.1,1.3,0.2,2,0.2c0.7,0,1.4-0.1,2-0.5c0.5-0.4,0.7-1.1,0.7-1.7c0-0.4-0.1-0.7-0.2-1.1C48.6,16.3,48.4,16.1,48.1,16z"/>
	<path class="st0" d="M56.8,18.5c-0.2,0-0.4,0-0.5-0.1c-0.1-0.1-0.2-0.3-0.2-0.4c0-0.3,0-0.6,0-0.9v-3h2v-1.2H56v-2h-1.4v2h-0.9v1.2
		h0.9v3.2c0,0.5,0,1,0.2,1.5c0.1,0.3,0.3,0.6,0.6,0.8c0.4,0.2,0.7,0.3,1.1,0.2c0.5,0,1-0.1,1.5-0.2h0.1L58,18.5L56.8,18.5z"/>
	<path class="st0" d="M67.1,18.1c-0.3,0.1-0.5,0.2-0.8,0.3c-0.3,0.1-0.5,0.1-0.8,0.1c-0.3,0-0.5,0-0.7-0.2c-0.2-0.1-0.3-0.4-0.3-0.6
		c-0.1-0.5-0.1-0.9-0.1-1.4v-3.6H63v3.6c0,0.7,0,1.3,0.2,2c0.1,0.4,0.3,0.8,0.7,1.1c0.4,0.3,0.9,0.4,1.4,0.3c0.3,0,0.7,0,1-0.1
		c0.3-0.1,0.6-0.2,0.9-0.4v0.4h1.4v-6.9h-1.4V18.1z"/>
	<path class="st0" d="M78.3,12.9c-0.5-0.1-1-0.2-1.5-0.2c-0.8-0.1-1.6,0.3-2.2,0.9c-0.5,0.8-0.8,1.8-0.7,2.8
		c-0.1,0.9,0.1,1.8,0.6,2.6c0.4,0.6,1.2,0.9,1.9,0.9c0.6,0,1.3-0.2,1.9-0.5v0.4h1.4V10h-1.4V12.9z M78.3,18.2l-0.2,0.1
		c-0.2,0.1-0.5,0.2-0.7,0.2c-0.9,0.2-1.4,0.1-1.7-0.4c-0.2-0.5-0.3-1.1-0.3-1.7c-0.1-0.6,0.1-1.3,0.4-1.8c0.3-0.4,0.8-0.5,1.2-0.5
		c0.4,0,0.9,0.1,1.3,0.1L78.3,18.2z"/>
	<path class="st0" d="M87.9,12.7c-0.9-0.1-1.7,0.3-2.2,0.9c-0.5,0.8-0.8,1.8-0.7,2.8c-0.1,0.9,0.2,1.8,0.7,2.5
		c0.6,0.6,1.4,0.9,2.2,0.8c0.9,0,1.7-0.1,2.5-0.3h0.1v-1.1L90,18.5c-0.3,0-0.6,0-0.9,0.1h-0.9c-0.4,0-0.7,0-1.1-0.2
		c-0.2-0.1-0.4-0.3-0.5-0.5c-0.1-0.3-0.2-0.7-0.2-1h4.2l0.1-1C90.7,13.8,89.8,12.7,87.9,12.7z M86.4,15.7c0-0.5,0.1-1,0.4-1.4
		c0.3-0.3,0.7-0.5,1.2-0.4c0.4,0,0.8,0.1,1.1,0.4c0.2,0.4,0.4,0.9,0.3,1.4H86.4z"/>
	<path class="st0" d="M100.7,13c-0.4-0.3-0.9-0.4-1.4-0.4c-0.3,0-0.7,0-1,0.1c-0.3,0.1-0.6,0.2-0.9,0.4v-0.4H96v6.8h1.4v-5.3
		l0.2-0.1c0.5-0.2,1-0.3,1.4-0.3c0.3,0,0.5,0.1,0.7,0.2c0.2,0.2,0.3,0.4,0.3,0.6c0.1,0.4,0.1,0.9,0.1,1.3v3.6h1.4V16
		c0-0.6-0.1-1.3-0.2-1.9C101.3,13.7,101.1,13.3,100.7,13z"/>
	<path class="st0" d="M109.7,18.5c-0.2,0-0.4,0-0.5-0.1c-0.1-0.1-0.2-0.3-0.2-0.4c0-0.3-0.1-0.6-0.1-0.9v-3h2v-1.2h-2v-2h-1.4v2
		h-0.9v1.2h0.9v3.2c0,0.5,0,1,0.2,1.5c0.1,0.3,0.3,0.6,0.6,0.8c0.4,0.2,0.7,0.3,1.1,0.2c0.5,0,1-0.1,1.5-0.2h0.1l-0.1-1.2
		L109.7,18.5z"/>
	<path class="st0" d="M120,16c-0.4-0.2-0.8-0.3-1.2-0.4l-0.4-0.1c-0.3-0.1-0.6-0.1-0.8-0.2c-0.2,0-0.3-0.1-0.4-0.2
		c-0.1-0.1-0.2-0.3-0.2-0.4c0-0.5,0.4-0.7,1.3-0.7c0.8,0,1.5,0.1,2.3,0.2h0.1V13l-0.5-0.1c-0.7-0.1-1.3-0.2-2-0.2
		c-1.7,0-2.6,0.7-2.6,2.2c0,0.4,0.1,0.7,0.3,1c0.2,0.3,0.4,0.5,0.7,0.6c0.4,0.1,0.8,0.3,1.2,0.3l0.3,0c0.3,0,0.5,0.1,0.8,0.2
		c0.2,0,0.3,0.1,0.4,0.2c0.3,0.3,0.2,0.8-0.1,1.1c0,0,0,0,0,0c-0.3,0.2-0.7,0.2-1,0.2c-0.8,0-1.5-0.1-2.3-0.2h-0.1l-0.1,1.2l0.5,0.1
		c0.7,0.1,1.3,0.2,2,0.2c0.7,0,1.4-0.1,2-0.5c0.5-0.4,0.7-1,0.7-1.7c0-0.4-0.1-0.7-0.2-1.1C120.5,16.3,120.3,16.1,120,16z"/>
	
		<linearGradient id="SVGID_1_" gradientUnits="userSpaceOnUse" x1="16.4188" y1="16.9471" x2="13.8388" y2="15.9771" gradientTransform="matrix(1 0 0 -1 0 32)">
		<stop  offset="0" style="stop-color:#FFFFFF;stop-opacity:0"/>
		<stop  offset="0.39" style="stop-color:#CECECE;stop-opacity:0.11"/>
		<stop  offset="1" style="stop-color:#4D4D4D;stop-opacity:0.4"/>
	</linearGradient>
	<path class="st1" d="M15.7,18.8c0,0-1.3-1.2-1.2-5.2c0-0.4,0.1-1.2,0.1-1.4c0.6,1.1,1.9,0.1,2.3,4.1c-0.1,0.3-0.3,0.7-0.5,1.1
		C16,18.2,15.7,18.8,15.7,18.8z"/>
	
		<linearGradient id="SVGID_2_" gradientUnits="userSpaceOnUse" x1="31.5354" y1="17.8867" x2="27.7854" y2="17.0167" gradientTransform="matrix(1 0 0 -1 0 32)">
		<stop  offset="0" style="stop-color:#FFFFFF;stop-opacity:0"/>
		<stop  offset="0.35" style="stop-color:#E3E3E3;stop-opacity:6.000000e-02"/>
		<stop  offset="0.76" style="stop-color:#929292;stop-opacity:0.25"/>
		<stop  offset="1" style="stop-color:#4D4D4D;stop-opacity:0.4"/>
	</linearGradient>
	<path class="st2" d="M29.4,12.8c-0.3,0.6-0.5,1.2-0.7,1.9c-0.2,0.7-0.3,1.4-0.2,2.1l0.5-0.1c0.9-0.1,1.8-0.4,2.7-0.7
		c0.1-0.7,0.1-1.4,0-2.1c0-0.6-0.3-1.2-0.8-1.7c-0.2,0.1-0.4,0.2-0.7,0.3C29.9,12.6,29.6,12.7,29.4,12.8z"/>
	
		<linearGradient id="SVGID_3_" gradientUnits="userSpaceOnUse" x1="21.6028" y1="15.6746" x2="22.8228" y2="17.0846" gradientTransform="matrix(1 0 0 -1 0 32)">
		<stop  offset="0" style="stop-color:#FFFFFF;stop-opacity:0"/>
		<stop  offset="0.37" style="stop-color:#E9E9E9;stop-opacity:5.000000e-02"/>
		<stop  offset="0.71" style="stop-color:#A7A7A7;stop-opacity:0.2"/>
		<stop  offset="1" style="stop-color:#4D4D4D;stop-opacity:0.4"/>
	</linearGradient>
	<path class="st3" d="M21,14c-0.2-0.2-0.2-0.3-0.2-0.3c-0.1,0.4-0.2,0.9-0.4,1.3c0.7,1.2,1.6,2.3,2.7,3.2c0,0,0,0,0-0.1
		c0.3-0.6,0.5-1.3,0.8-1.9C22.7,15.7,21.7,15,21,14z"/>
	
		<linearGradient id="SVGID_4_" gradientUnits="userSpaceOnUse" x1="24.687" y1="22.2712" x2="22.837" y2="21.0112" gradientTransform="matrix(1 0 0 -1 0 32)">
		<stop  offset="0" style="stop-color:#FFFFFF;stop-opacity:0"/>
		<stop  offset="0.5" style="stop-color:#B2B2B2;stop-opacity:0.17"/>
		<stop  offset="1" style="stop-color:#4D4D4D;stop-opacity:0.4"/>
	</linearGradient>
	<path class="st4" d="M24.9,10.2c0-0.5-0.1-1-0.1-1.5l0,0c-0.1-0.5-0.4-1-0.8-1.4c-0.3,0.4-0.5,0.9-0.6,1.4
		c-0.1,0.5-0.1,1.1-0.1,1.6c0,0.2,0,0.3,0.1,0.5c0.1,0.4,0.3,0.9,0.6,1.2c0.1,0.1,0.2,0.2,0.3,0.3c0.1,0.1,0.3,0.2,0.4,0.3
		C24.9,11.8,24.9,11,24.9,10.2z"/>
	
		<linearGradient id="SVGID_5_" gradientUnits="userSpaceOnUse" x1="10.6946" y1="10.8748" x2="13.3546" y2="12.6648" gradientTransform="matrix(1 0 0 -1 0 32)">
		<stop  offset="0" style="stop-color:#FFFFFF;stop-opacity:0"/>
		<stop  offset="0.37" style="stop-color:#E9E9E9;stop-opacity:5.000000e-02"/>
		<stop  offset="0.71" style="stop-color:#A7A7A7;stop-opacity:0.2"/>
		<stop  offset="1" style="stop-color:#4D4D4D;stop-opacity:0.4"/>
	</linearGradient>
	<path class="st5" d="M11.5,18.2c0.2,0.6,0.4,1.3,0.8,1.9c0.3,0.6,0.7,1.1,1.2,1.6c-0.1,0.1-0.3,0.2-0.5,0.3l-0.5,0.3l-0.6,0.4
		c-0.6-0.2-1-0.6-1.4-1.1c-0.3-0.5-0.4-1.1-0.4-1.7c0-0.2,0-0.4,0.1-0.6c0.2-0.1,0.4-0.2,0.6-0.3C11.1,18.7,11.3,18.4,11.5,18.2z"/>
	
		<linearGradient id="SVGID_6_" gradientUnits="userSpaceOnUse" x1="22.7871" y1="18.0886" x2="27.0971" y2="16.8886" gradientTransform="matrix(1 0 0 -1 0 32)">
		<stop  offset="0" style="stop-color:#FFFFFF;stop-opacity:0"/>
		<stop  offset="0.5" style="stop-color:#B2B2B2;stop-opacity:0.17"/>
		<stop  offset="1" style="stop-color:#4D4D4D;stop-opacity:0.4"/>
	</linearGradient>
	<path class="st6" d="M25.4,12.8c-0.2,0.6-0.3,1.1-0.5,1.7c-0.1,0.6-0.2,1.3-0.2,1.9c-0.3-0.1-0.7-0.2-1-0.3
		c-0.2-0.1-0.5-0.2-0.6-0.3c-2.1-1.2-0.2-4.3,1.6-3.3C25,12.6,25.2,12.7,25.4,12.8z"/>
</g>
</svg>
